<?xml version="1.0" encoding="utf-8"?>
<!-- Generator: Adobe Illustrator 16.0.0, SVG Export Plug-In . SVG Version: 6.00 Build 0)  -->
<!DOCTYPE svg PUBLIC "-//W3C//DTD SVG 1.1//EN" "http://www.w3.org/Graphics/SVG/1.1/DTD/svg11.dtd">
<svg version="1.1" id="Layer_1" xmlns="http://www.w3.org/2000/svg" xmlns:xlink="http://www.w3.org/1999/xlink" x="0px" y="0px"
	 width="2500px" height="2500px" viewBox="0 0 2500 2500" enable-background="new 0 0 2500 2500" xml:space="preserve">
<g>
	<path d="M1408.581,753.297c22.905-27.612,146.364-173.782,146.364-173.782h466.081c236.011,0,401.052,123.604,363.31,282.432
		c-37.688,158.841-262.611,282.456-497.508,282.456h-312.441l93.732-394.566h220.278l-64.188,270.199h49.44
		c131.5,0,255.995-47.949,282.17-158.089c24.046-101.14-63.202-158.075-204.808-158.075h-51.672l-214.377,0.182l-506.08,571.201
		L980.139,713.998c0,0-1.453-3.579-3.295-8.417c-0.454-1.154-4.254-5.149-6.29-4.384c-3.71,1.375-3.111,7.819-2.465,9.222
		c1.622,3.45,2.104,4.76,2.542,6.446c17.743,43.316,18.755,116.025,11.544,145.093c-39.312,158.464-262.638,282.455-497.508,282.455
		H172.226l93.746-394.566h220.265l-64.188,270.199h49.441c131.485,0,255.271-47.949,281.431-158.089
		c24.021-101.138-62.476-158.075-204.064-158.075H497.17l-220.266-0.104l29.532-124.25h291.858l387.096-0.508v0.508h159.388
		c0,0,44.99,131.783,58.945,171.667c66.781,190.746,55.731,203.649,55.731,203.649S1251.427,942.539,1408.581,753.297
		L1408.581,753.297z M110.295,1430.215c0-84.252,481.995-152.551,1076.504-152.551c594.547,0,1076.504,68.299,1076.504,152.551
		c0,84.277-481.957,152.576-1076.504,152.576C592.29,1582.791,110.295,1514.492,110.295,1430.215L110.295,1430.215z
		 M1147.837,1484.078c135.794,0,245.829-22.749,245.829-50.867c0-28.066-110.035-50.842-245.829-50.842
		c-135.754,0-245.803,22.775-245.803,50.842C902.034,1461.329,1012.083,1484.078,1147.837,1484.078L1147.837,1484.078z
		 M2180.943,1551.936h-9.922l-4.357,30.83h-4.813l4.307-30.83h-9.909l0.61-4.383h24.668L2180.943,1551.936L2180.943,1551.936z
		 M2217.453,1582.766h-4.645v-26.69h-0.104l-14.15,26.69l-6.083-26.951h-0.104l-8.689,26.951h-4.63l11.596-35.213h4.032
		l5.476,23.864l12.658-23.864h4.644L2217.453,1582.766L2217.453,1582.766z M473.863,1850.928h0.804l66.393-133.848h62.465
		l-115.82,203.91h-34.007L339.86,1717.08h62.463L473.863,1850.928L473.863,1850.928z M803.905,1915.725h-58.118V1717.08h58.118
		V1915.725z M972.642,1717.08h82.993c86.187,0,143.9,42.943,143.9,99.582c0,55.859-59.313,99.076-144.289,99.076h-82.617V1717.08
		H972.642z M1030.733,1881.979h9.479c71.556,0,99.231-26.342,99.231-65.613c0-43.188-33.229-65.588-99.231-65.588h-9.479V1881.979
		L1030.733,1881.979z M1412.589,1750.789v43.721h92.487v33.773h-92.487v53.692h96.054v33.748h-154.158V1717.08h154.158v33.709
		H1412.589L1412.589,1750.789z M1659.546,1816.117c0-55.604,60.466-104.342,147.428-104.342
		c86.938,0,147.453,48.738,147.453,104.342c0,56.896-60.517,104.873-147.453,104.873
		C1720.012,1920.99,1659.547,1873.016,1659.546,1816.117L1659.546,1816.117z M1719.635,1814.574
		c0,29.983,37.95,68.221,87.339,68.221c49.391,0,87.339-38.223,87.339-68.221c0-32.152-36.354-64.577-87.339-64.577
		C1755.963,1750.01,1719.635,1782.436,1719.635,1814.574z"/>
</g>
</svg>
